<?xml version="1.0" encoding="UTF-8"?>
<!DOCTYPE svg PUBLIC "-//W3C//DTD SVG 1.1//EN" "http://www.w3.org/Graphics/SVG/1.1/DTD/svg11.dtd">
<!-- Creator: CorelDRAW 2018 (64-Bit) -->
<svg xmlns="http://www.w3.org/2000/svg" xml:space="preserve" width="300mm" height="100mm" version="1.1" style="shape-rendering:geometricPrecision; text-rendering:geometricPrecision; image-rendering:optimizeQuality; fill-rule:evenodd; clip-rule:evenodd"
viewBox="0 0 30000 10000"
 xmlns:xlink="http://www.w3.org/1999/xlink">
 <defs>
  <style type="text/css">
   <![CDATA[
    .fil0 {fill:#FEFEFE;fill-rule:nonzero}
   ]]>
  </style>
 </defs>
 <g id="Katman_x0020_1">
  <metadata id="CorelCorpID_0Corel-Layer"/>
  <path class="fil0" d="M12922.65 9535.29c0,31.49 -9.4,59.16 -28.42,82.88 -19.02,23.73 -50.52,43.39 -94.72,59.34 -44.19,15.72 -104.98,27.61 -182.35,35.38 -77.31,8 -172.9,11.89 -286.64,11.89 -116.81,0 -214.02,-3.89 -291.4,-11.89 -77.31,-7.77 -138.1,-19.66 -182.29,-35.38 -44.2,-15.95 -75.69,-35.61 -94.72,-59.34 -19.02,-23.72 -28.48,-51.39 -28.48,-82.88l0 -2411.15c0,-205.27 -14.9,-366.28 -45.01,-483.09 -29.87,-116.87 -73.42,-217.1 -130.09,-300.79 -56.9,-83.7 -130.39,-148.54 -220.4,-194.19 -90.02,-45.82 -195,-68.73 -315.12,-68.73 -151.39,0 -304.62,55.21 -459.31,165.71 -154.69,110.49 -315.93,271.5 -483.32,483.09l0 2809.15c0,31.49 -9.4,59.16 -28.25,82.88 -19.02,23.73 -51.33,43.39 -97.21,59.34 -45.82,15.72 -106.6,27.61 -182.3,35.38 -75.92,8 -172.26,11.89 -289.13,11.89 -116.81,0 -212.98,-3.89 -288.9,-11.89 -75.69,-7.77 -136.48,-19.66 -182.3,-35.38 -45.82,-15.95 -78.18,-35.61 -97.21,-59.34 -18.79,-23.72 -28.42,-51.39 -28.42,-82.88l0 -6229.06c0,-31.72 9.63,-60.15 28.42,-85.32 19.03,-25.4 51.39,-46.69 97.21,-64.03 45.82,-17.4 106.61,-30.74 182.3,-40.31 75.92,-9.46 172.09,-14.15 288.9,-14.15 116.87,0 213.21,4.69 289.13,14.15 75.7,9.57 136.48,22.91 182.3,40.31 45.88,17.34 78.19,38.63 97.21,64.03 18.85,25.17 28.25,53.6 28.25,85.32l0 2335.23c205.44,-202.13 414.53,-352.93 627.74,-452.35 213.21,-99.47 435.01,-149.18 665.62,-149.18 287.28,0 529.72,47.28 726.98,141.99 197.49,94.72 356.88,224.23 478.62,388.55 121.52,164.14 209.1,356.07 262.69,575.6 53.82,219.36 80.62,485.35 80.62,797.97l0 2591.25z"/>
  <path class="fil0" d="M16644.56 7427.31c0,-208.52 -16.58,-400.21 -49.76,-575.54 -33.12,-175.17 -89.21,-327.59 -168.2,-457.17 -78.94,-129.51 -183.92,-230.55 -314.89,-303.23 -131.14,-72.61 -296.09,-108.81 -495.15,-108.81 -176.79,0 -331.48,32.31 -464.3,97.16 -132.59,64.67 -241.4,159.38 -326.72,284.2 -85.38,124.64 -149.18,274.63 -191.92,449.97 -42.58,175.34 -63.86,375.03 -63.86,599.32 0,208.28 17.4,400.21 52.14,575.37 34.63,175.34 90.66,327.76 168.03,457.11 77.55,129.51 182.53,229.8 315.12,300.96 132.59,71 296.85,106.43 492.66,106.43 179.86,0 336.23,-32.36 468.99,-96.97 132.59,-64.91 241.46,-158.81 326.78,-282 85.32,-123.14 148.37,-272.32 189.49,-447.48 41.12,-175.34 61.59,-375.03 61.59,-599.32zm1226.84 -47.45c0,360.13 -47.27,688.53 -141.99,985.44 -94.77,296.85 -238.61,552.63 -431.12,767.29 -192.73,214.84 -434.19,380.54 -724.78,497.42 -290.52,116.81 -630,175.33 -1018.55,175.33 -375.67,0 -702.62,-52.2 -980.5,-156.31 -277.89,-104.34 -508.5,-255.78 -691.61,-454.84 -183.1,-198.89 -319,-443.65 -407.39,-734.18 -88.4,-290.58 -132.59,-622.23 -132.59,-994.83 0,-359.95 48.08,-689.16 144.48,-987.69 96.34,-298.3 240.82,-554.09 433.38,-767.3 192.74,-213.21 433.56,-378.1 722.46,-494.98 288.96,-117.04 627.57,-175.33 1016.11,-175.33 378.98,0 707.38,51.39 985.26,153.87 277.83,102.72 507.63,253.52 689.11,452.41 181.72,199.06 316.75,443.82 405.14,734.35 88.39,290.58 132.59,623.68 132.59,999.35z"/>
  <path class="fil0" d="M25041.81 9535.29c0,31.49 -9.4,59.16 -28.42,82.88 -19.02,23.73 -50.58,43.39 -94.77,59.34 -44.2,15.72 -104.12,27.61 -180.04,35.38 -75.69,8 -172.09,11.89 -288.9,11.89 -119.95,0 -217.91,-3.89 -293.66,-11.89 -75.86,-7.77 -136.65,-19.66 -182.47,-35.38 -45.65,-15.95 -77.37,-35.61 -94.77,-59.34 -17.17,-23.72 -25.99,-51.39 -25.99,-82.88l0 -2505.93c0,-141.98 -13.28,-271.5 -40.31,-388.31 -26.79,-116.87 -67.68,-217.1 -123.19,-300.79 -55.22,-83.7 -124.59,-148.54 -208.28,-194.19 -83.7,-45.82 -183.92,-68.73 -300.79,-68.73 -142.16,0 -285.83,55.21 -431.12,165.71 -145.24,110.49 -303.23,271.5 -473.64,483.09l0 2809.15c0,31.49 -9.45,59.16 -28.48,82.88 -19.02,23.73 -51.33,43.39 -97.21,59.34 -45.59,15.72 -106.55,27.61 -182.29,35.38 -75.7,8 -170.41,11.89 -284.21,11.89 -116.81,0 -213.21,-3.89 -288.9,-11.89 -75.92,-7.77 -136.71,-19.66 -182.53,-35.38 -45.65,-15.95 -78.13,-35.61 -96.98,-59.34 -19.02,-23.72 -28.42,-51.39 -28.42,-82.88l0 -2505.93c0,-141.98 -13.51,-271.5 -40.31,-388.31 -26.79,-116.87 -67.1,-217.1 -120.76,-300.79 -53.82,-83.7 -123.13,-148.54 -208.51,-194.19 -85.09,-45.82 -184.73,-68.73 -298.3,-68.73 -145.29,0 -290.52,55.21 -435.82,165.71 -145.29,110.49 -301.6,271.5 -468.99,483.09l0 2809.15c0,31.49 -9.4,59.16 -28.42,82.88 -19.02,23.73 -51.39,43.39 -97.21,59.34 -45.65,15.72 -106.61,27.61 -182.3,35.38 -75.69,8 -172.08,11.89 -288.9,11.89 -116.87,0 -213.21,-3.89 -288.96,-11.89 -75.86,-7.77 -136.65,-19.66 -182.47,-35.38 -45.65,-15.95 -78.18,-35.61 -97.03,-59.34 -19.03,-23.72 -28.43,-51.39 -28.43,-82.88l0 -4225.48c0,-31.49 7.78,-59.16 23.73,-82.88 15.77,-23.72 44.19,-43.38 85.14,-59.1 41.13,-15.78 93.91,-27.67 158.75,-35.62 64.67,-7.77 146.1,-11.89 243.95,-11.89 101.04,0 184.73,4.12 251.03,11.89 66.29,7.95 117.68,19.84 154.11,35.62 36.19,15.72 62.18,35.38 78.13,59.1 15.77,23.72 23.54,51.39 23.54,82.88l0 488.02c233.69,-252.71 466.74,-442.2 698.74,-568.46 232.06,-126.45 474.5,-189.44 727.21,-189.44 173.72,0 330.03,17.99 469,54.41 138.91,36.25 262.92,88.39 371.78,156.31 108.81,67.98 202.95,149.18 281.71,243.9 79,94.77 145.3,200.56 199.12,317.38 126.21,-135.67 250.22,-252.48 371.79,-350.5 121.51,-97.79 241.63,-177.6 360.12,-239.2 118.27,-61.6 236.71,-107.42 355.2,-137.29 118.44,-30.1 239.2,-45.01 362.39,-45.01 281.13,0 517.83,47.28 710.63,141.99 192.5,94.72 348,223.42 466.5,386.11 118.44,162.69 202.94,352.94 253.52,570.85 50.52,217.96 75.69,448.34 75.69,691.6l0 2704.81z"/>
  <path class="fil0" d="M28465.25 6958.37c9.4,-334.78 -57.71,-597.7 -201.32,-788.81 -143.67,-190.88 -365.46,-286.47 -665.62,-286.47 -151.44,0 -283.39,28.48 -395.5,85.15 -112.18,56.9 -205.27,133.63 -279.51,229.8 -74.07,96.34 -130.97,210.13 -170.46,341.04 -39.5,131.2 -62.41,270.92 -68.74,419.29l1781.15 0zm1155.84 341.1c0,145.24 -32.3,252.66 -97.15,322.02 -64.67,69.61 -153.87,104.17 -267.67,104.17l-2572.17 0c0,180.04 21.29,343.54 64.04,490.46 42.57,146.74 110.49,271.5 203.58,374.05 93.32,102.72 213.21,180.84 360.13,234.49 146.68,53.83 322.89,80.62 528.09,80.62 208.52,0 391.63,-14.96 549.62,-45 157.76,-30.11 294.41,-63.28 409.6,-99.48 115.25,-36.42 210.78,-69.54 286.7,-99.41 75.69,-30.1 137.29,-45.07 184.73,-45.07 28.48,0 51.97,5.57 71.05,16.59 19.03,11.08 34.75,30.69 47.22,59.16 12.7,28.42 21.52,68.73 26.21,120.94 4.7,51.96 6.96,117.45 6.96,196.39 0,69.6 -1.45,128.7 -4.69,177.83 -3.08,48.89 -7.78,90.65 -14.16,125.39 -6.32,34.81 -15.71,64.1 -28.42,87.59 -12.7,23.78 -29.23,46.69 -49.7,68.79 -20.48,22.09 -76.56,52.14 -168.21,90.01 -91.7,37.88 -208.51,74.88 -350.5,111.31 -142.21,36.19 -304.91,67.92 -488.01,94.71 -183.11,26.86 -378.92,40.31 -587.26,40.31 -375.85,0 -705.06,-47.44 -987.64,-142.16 -282.81,-94.77 -518.7,-238.38 -708.19,-431.12 -189.49,-192.56 -330.84,-435.64 -423.93,-729.47 -93.32,-293.61 -139.78,-637.78 -139.78,-1032.71 0,-375.67 48.89,-714.51 146.74,-1016.12 97.96,-301.6 240.01,-557.33 426.36,-767.29 186.25,-209.9 412.91,-370.34 679.77,-480.83 266.81,-110.49 567.6,-165.76 902.32,-165.76 353.81,0 656.23,52.2 907.25,156.37 251.09,104.11 457.11,248.59 618.18,433.32 161.01,184.79 279.5,403.51 355.19,656.22 75.93,252.48 113.74,527.29 113.74,824.19l0 189.49z"/>
  <path class="fil0" d="M1155.85 4763.68c-30.69,-13.75 -73.26,-23.78 -127.66,-30.74 -54.47,-6.73 -124.24,-10.21 -209.33,-10.21 -81.66,0 -149.82,3.48 -204.22,10.21 -54.4,6.96 -97.79,16.99 -130.15,30.74 -32.31,13.69 -54.64,30.68 -66.47,51.15 -11.89,20.25 -17.81,42.34 -17.81,66.3l0 4595c0,27.2 5.92,50.34 17.81,68.96 11.83,18.79 34.16,34.98 66.47,48.49 32.36,13.69 75.75,23.96 130.15,30.68 54.4,6.73 122.56,10.21 204.22,10.21 85.09,0 154.86,-3.48 209.33,-10.21 54.4,-6.72 96.97,-16.99 127.66,-30.68 30.68,-13.51 52.78,-29.7 66.29,-48.49 13.69,-18.62 20.48,-41.76 20.48,-68.96l0 -4595c0,-23.96 -6.79,-46.05 -20.48,-66.3 -13.51,-20.47 -35.61,-37.46 -66.29,-51.15z"/>
  <path class="fil0" d="M1155.85 4763.68c-30.69,-13.75 -73.26,-23.78 -127.66,-30.74 -54.47,-6.73 -124.24,-10.21 -209.33,-10.21 -81.66,0 -149.82,3.48 -204.22,10.21 -54.4,6.96 -97.79,16.99 -130.15,30.74 -32.31,13.69 -54.64,30.68 -66.47,51.15 -11.89,20.25 -17.81,42.34 -17.81,66.3l0 4595c0,27.2 5.92,50.34 17.81,68.96 11.83,18.79 34.16,34.98 66.47,48.49 32.36,13.69 75.75,23.96 130.15,30.68 54.4,6.73 122.56,10.21 204.22,10.21 85.09,0 154.86,-3.48 209.33,-10.21 54.4,-6.72 96.97,-16.99 127.66,-30.68 30.68,-13.51 52.78,-29.7 66.29,-48.49 13.69,-18.62 20.48,-41.76 20.48,-68.96l0 -4595c0,-23.96 -6.79,-46.05 -20.48,-66.3 -13.51,-20.47 -35.61,-37.46 -66.29,-51.15z"/>
  <path class="fil0" d="M5888.83 8082.37c-132.76,166.75 -258.63,307.11 -377.7,421.26 -119.31,113.97 -233.28,206.66 -342.15,278.29 -109.04,71.4 -215.41,122.38 -319.18,153.06 -103.76,30.68 -211.76,46.05 -324.11,46.05 -221.38,0 -405.13,-51.96 -551.41,-155.73 -146.51,-103.94 -263.96,-241.63 -352.35,-413.72 -88.63,-171.85 -150.63,-368.3 -186.42,-589.69 -35.79,-221.22 -53.59,-447.48 -53.59,-678.9 0,-217.91 21.28,-432.4 63.8,-643.35 42.57,-211.12 110.72,-400.03 204.22,-566.78 93.73,-166.75 215.24,-301.2 365.06,-403.28 149.76,-102.08 331.88,-153.24 546.31,-153.24 231.42,0 453.62,74.07 666.43,221.97 212.57,148.19 432.97,363.43 661.09,646.01l0 1838.05zm832.6 -4755.43l-3159.65 -3159.66c-23.14,-23.14 -64.27,-23.14 -87.41,0l-3103.8 3103.75c-6.73,5.16 -15.54,9.22 -21.46,14.96 -7.77,7.37 -13.28,18.21 -20.24,26.8l-14.15 14.15c-4.47,4.46 -5.69,10.84 -8.59,16.12 -45.82,77.55 -69.37,191.93 -69.37,346.21 0,194.01 36.66,325.96 109.68,395.74 73.26,69.77 208.52,104.57 405.95,104.57 200.98,0 338.67,-35.61 413.55,-107.24 74.88,-71.4 112.35,-205.84 112.35,-403.28 0,-129.11 -17.64,-228.17 -50.17,-302.24l2305.18 -2371.89 2325.89 2408.55c7.95,8.35 18.62,13.1 29.64,15.95l0 1916.23c-217.91,-227.95 -438.25,-400.67 -661.09,-518.12 -223.02,-117.46 -469,-176.15 -737.83,-176.15 -323.3,0 -608.55,60.38 -855.28,181.25 -246.8,120.76 -453.45,293.43 -620.44,518.12 -166.75,224.64 -292.55,496.2 -377.7,814.33 -85.14,318.43 -127.66,674.84 -127.66,1069.77 0,333.51 34.16,650.83 102.08,952.26 68.15,301.2 176.15,563.3 324.34,786.14 147.91,223.02 341.05,399.98 579.43,530.94 238.21,131.14 525.9,196.62 862.88,196.62 309.78,0 594.8,-73.25 855.28,-219.53 260.25,-146.28 511.34,-350.5 752.97,-612.6l0 607.5c0,27.2 6.78,51.15 20.47,71.4 13.52,20.47 35.79,36.65 66.3,48.72 30.68,11.83 69.77,21.28 117.45,28.01 47.68,6.73 107.18,10.21 178.82,10.21 67.91,0 125.86,-3.48 173.53,-10.21 47.68,-6.73 85.9,-16.18 114.79,-28.01 29.06,-12.07 49.53,-28.25 61.36,-48.72 11.89,-20.25 17.81,-44.2 17.81,-71.4l0 -6075.01c0,-2.84 -1.22,-5.51 -1.45,-8.35 8.82,-22.74 3.88,-48.55 -13.46,-65.89z"/>
  <path class="fil0" d="M5888.83 8082.37c-132.76,166.75 -258.63,307.11 -377.7,421.26 -119.31,113.97 -233.28,206.66 -342.15,278.29 -109.04,71.4 -215.41,122.38 -319.18,153.06 -103.76,30.68 -211.76,46.05 -324.11,46.05 -221.38,0 -405.13,-51.96 -551.41,-155.73 -146.51,-103.94 -263.96,-241.63 -352.35,-413.72 -88.63,-171.85 -150.63,-368.3 -186.42,-589.69 -35.79,-221.22 -53.59,-447.48 -53.59,-678.9 0,-217.91 21.28,-432.4 63.8,-643.35 42.57,-211.12 110.72,-400.03 204.22,-566.78 93.73,-166.75 215.24,-301.2 365.06,-403.28 149.76,-102.08 331.88,-153.24 546.31,-153.24 231.42,0 453.62,74.07 666.43,221.97 212.57,148.19 432.97,363.43 661.09,646.01l0 1838.05zm832.6 -4755.43l-3159.65 -3159.66c-23.14,-23.14 -64.27,-23.14 -87.41,0l-3103.8 3103.75c-6.73,5.16 -15.54,9.22 -21.46,14.96 -7.77,7.37 -13.28,18.21 -20.24,26.8l-14.15 14.15c-4.47,4.46 -5.69,10.84 -8.59,16.12 -45.82,77.55 -69.37,191.93 -69.37,346.21 0,194.01 36.66,325.96 109.68,395.74 73.26,69.77 208.52,104.57 405.95,104.57 200.98,0 338.67,-35.61 413.55,-107.24 74.88,-71.4 112.35,-205.84 112.35,-403.28 0,-129.11 -17.64,-228.17 -50.17,-302.24l2305.18 -2371.89 2325.89 2408.55c7.95,8.35 18.62,13.1 29.64,15.95l0 1916.23c-217.91,-227.95 -438.25,-400.67 -661.09,-518.12 -223.02,-117.46 -469,-176.15 -737.83,-176.15 -323.3,0 -608.55,60.38 -855.28,181.25 -246.8,120.76 -453.45,293.43 -620.44,518.12 -166.75,224.64 -292.55,496.2 -377.7,814.33 -85.14,318.43 -127.66,674.84 -127.66,1069.77 0,333.51 34.16,650.83 102.08,952.26 68.15,301.2 176.15,563.3 324.34,786.14 147.91,223.02 341.05,399.98 579.43,530.94 238.21,131.14 525.9,196.62 862.88,196.62 309.78,0 594.8,-73.25 855.28,-219.53 260.25,-146.28 511.34,-350.5 752.97,-612.6l0 607.5c0,27.2 6.78,51.15 20.47,71.4 13.52,20.47 35.79,36.65 66.3,48.72 30.68,11.83 69.77,21.28 117.45,28.01 47.68,6.73 107.18,10.21 178.82,10.21 67.91,0 125.86,-3.48 173.53,-10.21 47.68,-6.73 85.9,-16.18 114.79,-28.01 29.06,-12.07 49.53,-28.25 61.36,-48.72 11.89,-20.25 17.81,-44.2 17.81,-71.4l0 -6075.01c0,-2.84 -1.22,-5.51 -1.45,-8.35 8.82,-22.74 3.88,-48.55 -13.46,-65.89z"/>
 </g>
</svg>
