<?xml version="1.0" encoding="UTF-8"?>
<!DOCTYPE svg PUBLIC "-//W3C//DTD SVG 1.1//EN" "http://www.w3.org/Graphics/SVG/1.1/DTD/svg11.dtd">
<!-- Creator: CorelDRAW 2018 (64-Bit) -->
<svg xmlns="http://www.w3.org/2000/svg" xml:space="preserve" width="67mm" height="97mm" version="1.1" style="shape-rendering:geometricPrecision; text-rendering:geometricPrecision; image-rendering:optimizeQuality; fill-rule:evenodd; clip-rule:evenodd"
viewBox="0 0 6700 9700"
 xmlns:xlink="http://www.w3.org/1999/xlink">
 <defs>
  <style type="text/css">
   <![CDATA[
    .fil0 {fill:#FEFEFE;fill-rule:nonzero}
    .fil1 {fill:#F18C3C;fill-rule:nonzero}
   ]]>
  </style>
 </defs>
 <g id="Katman_x0020_1">
  <metadata id="CorelCorpID_0Corel-Layer"/>
  <path class="fil0" d="M1006.42 4716.74c-30.69,-13.75 -73.26,-23.78 -127.66,-30.74 -54.47,-6.73 -124.24,-10.21 -209.33,-10.21 -81.66,0 -149.82,3.48 -204.22,10.21 -54.4,6.96 -97.79,16.99 -130.15,30.74 -32.31,13.69 -54.64,30.68 -66.47,51.15 -11.89,20.25 -17.81,42.34 -17.81,66.3l0 4595c0,27.2 5.92,50.34 17.81,68.96 11.83,18.79 34.16,34.98 66.47,48.49 32.36,13.69 75.75,23.96 130.15,30.68 54.4,6.73 122.56,10.21 204.22,10.21 85.09,0 154.86,-3.48 209.33,-10.21 54.4,-6.72 96.97,-16.99 127.66,-30.68 30.68,-13.51 52.78,-29.7 66.29,-48.49 13.69,-18.62 20.48,-41.76 20.48,-68.96l0 -4595c0,-23.96 -6.79,-46.05 -20.48,-66.3 -13.51,-20.47 -35.61,-37.46 -66.29,-51.15z"/>
  <path class="fil1" d="M1006.42 4716.74c-30.69,-13.75 -73.26,-23.78 -127.66,-30.74 -54.47,-6.73 -124.24,-10.21 -209.33,-10.21 -81.66,0 -149.82,3.48 -204.22,10.21 -54.4,6.96 -97.79,16.99 -130.15,30.74 -32.31,13.69 -54.64,30.68 -66.47,51.15 -11.89,20.25 -17.81,42.34 -17.81,66.3l0 4595c0,27.2 5.92,50.34 17.81,68.96 11.83,18.79 34.16,34.98 66.47,48.49 32.36,13.69 75.75,23.96 130.15,30.68 54.4,6.73 122.56,10.21 204.22,10.21 85.09,0 154.86,-3.48 209.33,-10.21 54.4,-6.72 96.97,-16.99 127.66,-30.68 30.68,-13.51 52.78,-29.7 66.29,-48.49 13.69,-18.62 20.48,-41.76 20.48,-68.96l0 -4595c0,-23.96 -6.79,-46.05 -20.48,-66.3 -13.51,-20.47 -35.61,-37.46 -66.29,-51.15z"/>
  <path class="fil0" d="M5739.4 8035.43c-132.76,166.75 -258.63,307.11 -377.7,421.26 -119.31,113.97 -233.28,206.66 -342.15,278.29 -109.04,71.4 -215.41,122.38 -319.18,153.06 -103.76,30.68 -211.76,46.05 -324.11,46.05 -221.38,0 -405.13,-51.96 -551.41,-155.73 -146.51,-103.94 -263.96,-241.63 -352.35,-413.72 -88.63,-171.85 -150.63,-368.3 -186.42,-589.69 -35.79,-221.22 -53.59,-447.48 -53.59,-678.9 0,-217.91 21.28,-432.4 63.8,-643.35 42.57,-211.12 110.72,-400.03 204.22,-566.78 93.73,-166.75 215.24,-301.2 365.06,-403.28 149.76,-102.08 331.88,-153.24 546.31,-153.24 231.42,0 453.62,74.07 666.43,221.97 212.57,148.19 432.97,363.43 661.09,646.01l0 1838.05zm832.6 -4755.43l-3159.65 -3159.66c-23.14,-23.14 -64.27,-23.14 -87.41,0l-3103.8 3103.75c-6.73,5.16 -15.54,9.22 -21.46,14.96 -7.77,7.37 -13.28,18.21 -20.24,26.8l-14.15 14.15c-4.47,4.46 -5.69,10.84 -8.59,16.12 -45.82,77.55 -69.37,191.93 -69.37,346.21 0,194.01 36.66,325.96 109.68,395.74 73.26,69.77 208.52,104.57 405.95,104.57 200.98,0 338.67,-35.61 413.55,-107.24 74.88,-71.4 112.35,-205.84 112.35,-403.28 0,-129.11 -17.64,-228.17 -50.17,-302.24l2305.18 -2371.89 2325.89 2408.55c7.95,8.35 18.62,13.1 29.64,15.95l0 1916.23c-217.91,-227.95 -438.25,-400.67 -661.09,-518.12 -223.02,-117.46 -469,-176.15 -737.83,-176.15 -323.3,0 -608.55,60.38 -855.28,181.25 -246.8,120.76 -453.45,293.43 -620.44,518.12 -166.75,224.64 -292.55,496.2 -377.7,814.33 -85.14,318.43 -127.66,674.84 -127.66,1069.77 0,333.51 34.16,650.83 102.08,952.26 68.15,301.2 176.15,563.3 324.34,786.14 147.91,223.02 341.05,399.98 579.43,530.94 238.21,131.14 525.9,196.62 862.88,196.62 309.78,0 594.8,-73.25 855.28,-219.53 260.25,-146.28 511.34,-350.5 752.97,-612.6l0 607.5c0,27.2 6.78,51.15 20.47,71.4 13.52,20.47 35.79,36.65 66.3,48.72 30.68,11.83 69.77,21.28 117.45,28.01 47.68,6.73 107.18,10.21 178.82,10.21 67.91,0 125.86,-3.48 173.53,-10.21 47.68,-6.73 85.9,-16.18 114.79,-28.01 29.06,-12.07 49.53,-28.25 61.36,-48.72 11.89,-20.25 17.81,-44.2 17.81,-71.4l0 -6075.01c0,-2.84 -1.22,-5.51 -1.45,-8.35 8.82,-22.74 3.88,-48.55 -13.46,-65.89z"/>
  <path class="fil1" d="M5739.4 8035.43c-132.76,166.75 -258.63,307.11 -377.7,421.26 -119.31,113.97 -233.28,206.66 -342.15,278.29 -109.04,71.4 -215.41,122.38 -319.18,153.06 -103.76,30.68 -211.76,46.05 -324.11,46.05 -221.38,0 -405.13,-51.96 -551.41,-155.73 -146.51,-103.94 -263.96,-241.63 -352.35,-413.72 -88.63,-171.85 -150.63,-368.3 -186.42,-589.69 -35.79,-221.22 -53.59,-447.48 -53.59,-678.9 0,-217.91 21.28,-432.4 63.8,-643.35 42.57,-211.12 110.72,-400.03 204.22,-566.78 93.73,-166.75 215.24,-301.2 365.06,-403.28 149.76,-102.08 331.88,-153.24 546.31,-153.24 231.42,0 453.62,74.07 666.43,221.97 212.57,148.19 432.97,363.43 661.09,646.01l0 1838.05zm832.6 -4755.43l-3159.65 -3159.66c-23.14,-23.14 -64.27,-23.14 -87.41,0l-3103.8 3103.75c-6.73,5.16 -15.54,9.22 -21.46,14.96 -7.77,7.37 -13.28,18.21 -20.24,26.8l-14.15 14.15c-4.47,4.46 -5.69,10.84 -8.59,16.12 -45.82,77.55 -69.37,191.93 -69.37,346.21 0,194.01 36.66,325.96 109.68,395.74 73.26,69.77 208.52,104.57 405.95,104.57 200.98,0 338.67,-35.61 413.55,-107.24 74.88,-71.4 112.35,-205.84 112.35,-403.28 0,-129.11 -17.64,-228.17 -50.17,-302.24l2305.18 -2371.89 2325.89 2408.55c7.95,8.35 18.62,13.1 29.64,15.95l0 1916.23c-217.91,-227.95 -438.25,-400.67 -661.09,-518.12 -223.02,-117.46 -469,-176.15 -737.83,-176.15 -323.3,0 -608.55,60.38 -855.28,181.25 -246.8,120.76 -453.45,293.43 -620.44,518.12 -166.75,224.64 -292.55,496.2 -377.7,814.33 -85.14,318.43 -127.66,674.84 -127.66,1069.77 0,333.51 34.16,650.83 102.08,952.26 68.15,301.2 176.15,563.3 324.34,786.14 147.91,223.02 341.05,399.98 579.43,530.94 238.21,131.14 525.9,196.62 862.88,196.62 309.78,0 594.8,-73.25 855.28,-219.53 260.25,-146.28 511.34,-350.5 752.97,-612.6l0 607.5c0,27.2 6.78,51.15 20.47,71.4 13.52,20.47 35.79,36.65 66.3,48.72 30.68,11.83 69.77,21.28 117.45,28.01 47.68,6.73 107.18,10.21 178.82,10.21 67.91,0 125.86,-3.48 173.53,-10.21 47.68,-6.73 85.9,-16.18 114.79,-28.01 29.06,-12.07 49.53,-28.25 61.36,-48.72 11.89,-20.25 17.81,-44.2 17.81,-71.4l0 -6075.01c0,-2.84 -1.22,-5.51 -1.45,-8.35 8.82,-22.74 3.88,-48.55 -13.46,-65.89z"/>
 </g>
</svg>
